<mxfile host="Electron" modified="2023-10-01T16:49:22.457Z" agent="Mozilla/5.0 (Windows NT 10.0; Win64; x64) AppleWebKit/537.36 (KHTML, like Gecko) draw.io/21.7.5 Chrome/114.0.5735.289 Electron/25.8.1 Safari/537.36" etag="fw6h2gofkIgv3jX2XLfD" version="21.7.5" type="device">
  <diagram id="C5RBs43oDa-KdzZeNtuy" name="Page-1">
    <mxGraphModel dx="578" dy="616" grid="1" gridSize="10" guides="1" tooltips="1" connect="1" arrows="1" fold="1" page="1" pageScale="1" pageWidth="827" pageHeight="1169" math="0" shadow="0">
      <root>
        <mxCell id="WIyWlLk6GJQsqaUBKTNV-0" />
        <mxCell id="WIyWlLk6GJQsqaUBKTNV-1" parent="WIyWlLk6GJQsqaUBKTNV-0" />
        <mxCell id="M5RK4euOj0mP_UqlNzLS-6" style="rounded=0;orthogonalLoop=1;jettySize=auto;html=1;entryX=0.5;entryY=0;entryDx=0;entryDy=0;" parent="WIyWlLk6GJQsqaUBKTNV-1" source="zkfFHV4jXpPFQw0GAbJ--0" target="OTvo379YdAUYMF1GGiu_-6" edge="1">
          <mxGeometry relative="1" as="geometry" />
        </mxCell>
        <mxCell id="M5RK4euOj0mP_UqlNzLS-7" value="uses to store cards" style="edgeLabel;html=1;align=center;verticalAlign=middle;resizable=0;points=[];" parent="M5RK4euOj0mP_UqlNzLS-6" vertex="1" connectable="0">
          <mxGeometry x="-0.0605" y="2" relative="1" as="geometry">
            <mxPoint x="-1" as="offset" />
          </mxGeometry>
        </mxCell>
        <mxCell id="M5RK4euOj0mP_UqlNzLS-10" style="rounded=0;orthogonalLoop=1;jettySize=auto;html=1;" parent="WIyWlLk6GJQsqaUBKTNV-1" source="zkfFHV4jXpPFQw0GAbJ--0" target="zkfFHV4jXpPFQw0GAbJ--6" edge="1">
          <mxGeometry relative="1" as="geometry" />
        </mxCell>
        <mxCell id="M5RK4euOj0mP_UqlNzLS-11" value="plays" style="edgeLabel;html=1;align=center;verticalAlign=middle;resizable=0;points=[];labelPosition=center;verticalLabelPosition=middle;" parent="M5RK4euOj0mP_UqlNzLS-10" vertex="1" connectable="0">
          <mxGeometry x="-0.186" y="3" relative="1" as="geometry">
            <mxPoint as="offset" />
          </mxGeometry>
        </mxCell>
        <mxCell id="zkfFHV4jXpPFQw0GAbJ--0" value="Player" style="swimlane;fontStyle=1;align=center;verticalAlign=top;childLayout=stackLayout;horizontal=1;startSize=26;horizontalStack=0;resizeParent=1;resizeLast=0;collapsible=1;marginBottom=0;rounded=0;shadow=0;strokeWidth=1;" parent="WIyWlLk6GJQsqaUBKTNV-1" vertex="1" collapsed="1">
          <mxGeometry x="274" y="36" width="160" height="26" as="geometry">
            <mxRectangle x="274" y="36" width="276" height="320" as="alternateBounds" />
          </mxGeometry>
        </mxCell>
        <mxCell id="OTvo379YdAUYMF1GGiu_-16" value="- name: String" style="text;align=left;verticalAlign=top;spacingLeft=4;spacingRight=4;overflow=hidden;rotatable=0;points=[[0,0.5],[1,0.5]];portConstraint=eastwest;rounded=0;shadow=0;html=0;" parent="zkfFHV4jXpPFQw0GAbJ--0" vertex="1">
          <mxGeometry y="26" width="276" height="26" as="geometry" />
        </mxCell>
        <mxCell id="zkfFHV4jXpPFQw0GAbJ--2" value="- account: Integer" style="text;align=left;verticalAlign=top;spacingLeft=4;spacingRight=4;overflow=hidden;rotatable=0;points=[[0,0.5],[1,0.5]];portConstraint=eastwest;rounded=0;shadow=0;html=0;" parent="zkfFHV4jXpPFQw0GAbJ--0" vertex="1">
          <mxGeometry y="52" width="276" height="26" as="geometry" />
        </mxCell>
        <mxCell id="toqturglBqnNgU9Eo2Pa-2" value="- deck: Deck" style="text;align=left;verticalAlign=top;spacingLeft=4;spacingRight=4;overflow=hidden;rotatable=0;points=[[0,0.5],[1,0.5]];portConstraint=eastwest;rounded=0;shadow=0;html=0;" parent="zkfFHV4jXpPFQw0GAbJ--0" vertex="1">
          <mxGeometry y="78" width="276" height="26" as="geometry" />
        </mxCell>
        <mxCell id="toqturglBqnNgU9Eo2Pa-64" value="- score: Integer" style="text;align=left;verticalAlign=top;spacingLeft=4;spacingRight=4;overflow=hidden;rotatable=0;points=[[0,0.5],[1,0.5]];portConstraint=eastwest;rounded=0;shadow=0;html=0;" parent="zkfFHV4jXpPFQw0GAbJ--0" vertex="1">
          <mxGeometry y="104" width="276" height="26" as="geometry" />
        </mxCell>
        <mxCell id="zkfFHV4jXpPFQw0GAbJ--4" value="" style="line;html=1;strokeWidth=1;align=left;verticalAlign=middle;spacingTop=-1;spacingLeft=3;spacingRight=3;rotatable=0;labelPosition=right;points=[];portConstraint=eastwest;" parent="zkfFHV4jXpPFQw0GAbJ--0" vertex="1">
          <mxGeometry y="130" width="276" height="8" as="geometry" />
        </mxCell>
        <mxCell id="toqturglBqnNgU9Eo2Pa-71" value="&lt;&lt;initialize&gt;&gt;" style="text;align=left;verticalAlign=top;spacingLeft=4;spacingRight=4;overflow=hidden;rotatable=0;points=[[0,0.5],[1,0.5]];portConstraint=eastwest;" parent="zkfFHV4jXpPFQw0GAbJ--0" vertex="1">
          <mxGeometry y="138" width="276" height="26" as="geometry" />
        </mxCell>
        <mxCell id="zkfFHV4jXpPFQw0GAbJ--5" value="+ make_bet(bet_size: Integer)" style="text;align=left;verticalAlign=top;spacingLeft=4;spacingRight=4;overflow=hidden;rotatable=0;points=[[0,0.5],[1,0.5]];portConstraint=eastwest;" parent="zkfFHV4jXpPFQw0GAbJ--0" vertex="1">
          <mxGeometry y="164" width="276" height="26" as="geometry" />
        </mxCell>
        <mxCell id="toqturglBqnNgU9Eo2Pa-4" value="+ request_card(number: Integer, dealler: Dealer)" style="text;align=left;verticalAlign=top;spacingLeft=4;spacingRight=4;overflow=hidden;rotatable=0;points=[[0,0.5],[1,0.5]];portConstraint=eastwest;" parent="zkfFHV4jXpPFQw0GAbJ--0" vertex="1">
          <mxGeometry y="190" width="276" height="26" as="geometry" />
        </mxCell>
        <mxCell id="toqturglBqnNgU9Eo2Pa-5" value="+ count_cards(): Integer" style="text;align=left;verticalAlign=top;spacingLeft=4;spacingRight=4;overflow=hidden;rotatable=0;points=[[0,0.5],[1,0.5]];portConstraint=eastwest;" parent="zkfFHV4jXpPFQw0GAbJ--0" vertex="1">
          <mxGeometry y="216" width="276" height="26" as="geometry" />
        </mxCell>
        <mxCell id="toqturglBqnNgU9Eo2Pa-43" value="+ increase_account(amount: Integer)" style="text;align=left;verticalAlign=top;spacingLeft=4;spacingRight=4;overflow=hidden;rotatable=0;points=[[0,0.5],[1,0.5]];portConstraint=eastwest;" parent="zkfFHV4jXpPFQw0GAbJ--0" vertex="1">
          <mxGeometry y="242" width="276" height="26" as="geometry" />
        </mxCell>
        <mxCell id="emH_409dvMcHfv_9ut4w-16" value="+ clear_hand()" style="text;align=left;verticalAlign=top;spacingLeft=4;spacingRight=4;overflow=hidden;rotatable=0;points=[[0,0.5],[1,0.5]];portConstraint=eastwest;" vertex="1" parent="zkfFHV4jXpPFQw0GAbJ--0">
          <mxGeometry y="268" width="276" height="26" as="geometry" />
        </mxCell>
        <mxCell id="emH_409dvMcHfv_9ut4w-0" value="- count_score(): Integer" style="text;align=left;verticalAlign=top;spacingLeft=4;spacingRight=4;overflow=hidden;rotatable=0;points=[[0,0.5],[1,0.5]];portConstraint=eastwest;" vertex="1" parent="zkfFHV4jXpPFQw0GAbJ--0">
          <mxGeometry y="294" width="276" height="26" as="geometry" />
        </mxCell>
        <mxCell id="M5RK4euOj0mP_UqlNzLS-0" style="rounded=0;orthogonalLoop=1;jettySize=auto;html=1;" parent="WIyWlLk6GJQsqaUBKTNV-1" source="zkfFHV4jXpPFQw0GAbJ--6" target="toqturglBqnNgU9Eo2Pa-29" edge="1">
          <mxGeometry relative="1" as="geometry" />
        </mxCell>
        <mxCell id="M5RK4euOj0mP_UqlNzLS-1" value="interacts with player using" style="edgeLabel;html=1;align=center;verticalAlign=middle;resizable=0;points=[];fontSize=11;" parent="M5RK4euOj0mP_UqlNzLS-0" vertex="1" connectable="0">
          <mxGeometry x="-0.0452" y="1" relative="1" as="geometry">
            <mxPoint as="offset" />
          </mxGeometry>
        </mxCell>
        <mxCell id="zkfFHV4jXpPFQw0GAbJ--6" value="Game" style="swimlane;fontStyle=1;align=center;verticalAlign=top;childLayout=stackLayout;horizontal=1;startSize=26;horizontalStack=0;resizeParent=1;resizeLast=0;collapsible=1;marginBottom=0;rounded=0;shadow=0;strokeWidth=1;" parent="WIyWlLk6GJQsqaUBKTNV-1" vertex="1" collapsed="1">
          <mxGeometry x="665" y="36" width="160" height="26" as="geometry">
            <mxRectangle x="520" y="36" width="250" height="476" as="alternateBounds" />
          </mxGeometry>
        </mxCell>
        <mxCell id="zkfFHV4jXpPFQw0GAbJ--7" value="- player: Player" style="text;align=left;verticalAlign=top;spacingLeft=4;spacingRight=4;overflow=hidden;rotatable=0;points=[[0,0.5],[1,0.5]];portConstraint=eastwest;" parent="zkfFHV4jXpPFQw0GAbJ--6" vertex="1">
          <mxGeometry y="26" width="250" height="26" as="geometry" />
        </mxCell>
        <mxCell id="toqturglBqnNgU9Eo2Pa-44" value="- dealer: Dealer" style="text;align=left;verticalAlign=top;spacingLeft=4;spacingRight=4;overflow=hidden;rotatable=0;points=[[0,0.5],[1,0.5]];portConstraint=eastwest;" parent="zkfFHV4jXpPFQw0GAbJ--6" vertex="1">
          <mxGeometry y="52" width="250" height="26" as="geometry" />
        </mxCell>
        <mxCell id="zkfFHV4jXpPFQw0GAbJ--8" value="- bank: Integer" style="text;align=left;verticalAlign=top;spacingLeft=4;spacingRight=4;overflow=hidden;rotatable=0;points=[[0,0.5],[1,0.5]];portConstraint=eastwest;rounded=0;shadow=0;html=0;" parent="zkfFHV4jXpPFQw0GAbJ--6" vertex="1">
          <mxGeometry y="78" width="250" height="26" as="geometry" />
        </mxCell>
        <mxCell id="emH_409dvMcHfv_9ut4w-4" value="- open_cards: Boolean" style="text;align=left;verticalAlign=top;spacingLeft=4;spacingRight=4;overflow=hidden;rotatable=0;points=[[0,0.5],[1,0.5]];portConstraint=eastwest;rounded=0;shadow=0;html=0;" vertex="1" parent="zkfFHV4jXpPFQw0GAbJ--6">
          <mxGeometry y="104" width="250" height="26" as="geometry" />
        </mxCell>
        <mxCell id="zkfFHV4jXpPFQw0GAbJ--9" value="" style="line;html=1;strokeWidth=1;align=left;verticalAlign=middle;spacingTop=-1;spacingLeft=3;spacingRight=3;rotatable=0;labelPosition=right;points=[];portConstraint=eastwest;" parent="zkfFHV4jXpPFQw0GAbJ--6" vertex="1">
          <mxGeometry y="130" width="250" height="8" as="geometry" />
        </mxCell>
        <mxCell id="toqturglBqnNgU9Eo2Pa-75" value="&lt;&lt;initialize&gt;&gt;" style="text;align=left;verticalAlign=top;spacingLeft=4;spacingRight=4;overflow=hidden;rotatable=0;points=[[0,0.5],[1,0.5]];portConstraint=eastwest;" parent="zkfFHV4jXpPFQw0GAbJ--6" vertex="1">
          <mxGeometry y="138" width="250" height="26" as="geometry" />
        </mxCell>
        <mxCell id="toqturglBqnNgU9Eo2Pa-7" value="+ start()" style="text;align=left;verticalAlign=top;spacingLeft=4;spacingRight=4;overflow=hidden;rotatable=0;points=[[0,0.5],[1,0.5]];portConstraint=eastwest;" parent="zkfFHV4jXpPFQw0GAbJ--6" vertex="1">
          <mxGeometry y="164" width="250" height="24" as="geometry" />
        </mxCell>
        <mxCell id="emH_409dvMcHfv_9ut4w-7" value="- register_player()" style="text;align=left;verticalAlign=top;spacingLeft=4;spacingRight=4;overflow=hidden;rotatable=0;points=[[0,0.5],[1,0.5]];portConstraint=eastwest;" vertex="1" parent="zkfFHV4jXpPFQw0GAbJ--6">
          <mxGeometry y="188" width="250" height="24" as="geometry" />
        </mxCell>
        <mxCell id="toqturglBqnNgU9Eo2Pa-8" value="- game_results()" style="text;align=left;verticalAlign=top;spacingLeft=4;spacingRight=4;overflow=hidden;rotatable=0;points=[[0,0.5],[1,0.5]];portConstraint=eastwest;" parent="zkfFHV4jXpPFQw0GAbJ--6" vertex="1">
          <mxGeometry y="212" width="250" height="24" as="geometry" />
        </mxCell>
        <mxCell id="toqturglBqnNgU9Eo2Pa-28" value="- both_have_3_cards?(): Boolean" style="text;align=left;verticalAlign=top;spacingLeft=4;spacingRight=4;overflow=hidden;rotatable=0;points=[[0,0.5],[1,0.5]];portConstraint=eastwest;" parent="zkfFHV4jXpPFQw0GAbJ--6" vertex="1">
          <mxGeometry y="236" width="250" height="24" as="geometry" />
        </mxCell>
        <mxCell id="toqturglBqnNgU9Eo2Pa-46" value="- draw?(): Boolean" style="text;align=left;verticalAlign=top;spacingLeft=4;spacingRight=4;overflow=hidden;rotatable=0;points=[[0,0.5],[1,0.5]];portConstraint=eastwest;" parent="zkfFHV4jXpPFQw0GAbJ--6" vertex="1">
          <mxGeometry y="260" width="250" height="24" as="geometry" />
        </mxCell>
        <mxCell id="emH_409dvMcHfv_9ut4w-8" value="- winner(): Player" style="text;align=left;verticalAlign=top;spacingLeft=4;spacingRight=4;overflow=hidden;rotatable=0;points=[[0,0.5],[1,0.5]];portConstraint=eastwest;" vertex="1" parent="zkfFHV4jXpPFQw0GAbJ--6">
          <mxGeometry y="284" width="250" height="24" as="geometry" />
        </mxCell>
        <mxCell id="OTvo379YdAUYMF1GGiu_-12" value="- give_winnings(player: Player)" style="text;align=left;verticalAlign=top;spacingLeft=4;spacingRight=4;overflow=hidden;rotatable=0;points=[[0,0.5],[1,0.5]];portConstraint=eastwest;" parent="zkfFHV4jXpPFQw0GAbJ--6" vertex="1">
          <mxGeometry y="308" width="250" height="24" as="geometry" />
        </mxCell>
        <mxCell id="OTvo379YdAUYMF1GGiu_-19" value="- one_more_game?(): Boolean" style="text;align=left;verticalAlign=top;spacingLeft=4;spacingRight=4;overflow=hidden;rotatable=0;points=[[0,0.5],[1,0.5]];portConstraint=eastwest;" parent="zkfFHV4jXpPFQw0GAbJ--6" vertex="1">
          <mxGeometry y="332" width="250" height="24" as="geometry" />
        </mxCell>
        <mxCell id="OTvo379YdAUYMF1GGiu_-13" value="- take_bets()" style="text;align=left;verticalAlign=top;spacingLeft=4;spacingRight=4;overflow=hidden;rotatable=0;points=[[0,0.5],[1,0.5]];portConstraint=eastwest;" parent="zkfFHV4jXpPFQw0GAbJ--6" vertex="1">
          <mxGeometry y="356" width="250" height="24" as="geometry" />
        </mxCell>
        <mxCell id="emH_409dvMcHfv_9ut4w-9" value="- round0()" style="text;align=left;verticalAlign=top;spacingLeft=4;spacingRight=4;overflow=hidden;rotatable=0;points=[[0,0.5],[1,0.5]];portConstraint=eastwest;" vertex="1" parent="zkfFHV4jXpPFQw0GAbJ--6">
          <mxGeometry y="380" width="250" height="24" as="geometry" />
        </mxCell>
        <mxCell id="emH_409dvMcHfv_9ut4w-10" value="- round_n()" style="text;align=left;verticalAlign=top;spacingLeft=4;spacingRight=4;overflow=hidden;rotatable=0;points=[[0,0.5],[1,0.5]];portConstraint=eastwest;" vertex="1" parent="zkfFHV4jXpPFQw0GAbJ--6">
          <mxGeometry y="404" width="250" height="24" as="geometry" />
        </mxCell>
        <mxCell id="emH_409dvMcHfv_9ut4w-11" value="- dealer_turn()" style="text;align=left;verticalAlign=top;spacingLeft=4;spacingRight=4;overflow=hidden;rotatable=0;points=[[0,0.5],[1,0.5]];portConstraint=eastwest;" vertex="1" parent="zkfFHV4jXpPFQw0GAbJ--6">
          <mxGeometry y="428" width="250" height="24" as="geometry" />
        </mxCell>
        <mxCell id="emH_409dvMcHfv_9ut4w-12" value="- reset_game()" style="text;align=left;verticalAlign=top;spacingLeft=4;spacingRight=4;overflow=hidden;rotatable=0;points=[[0,0.5],[1,0.5]];portConstraint=eastwest;" vertex="1" parent="zkfFHV4jXpPFQw0GAbJ--6">
          <mxGeometry y="452" width="250" height="24" as="geometry" />
        </mxCell>
        <mxCell id="zkfFHV4jXpPFQw0GAbJ--17" value="Dealer" style="swimlane;fontStyle=1;align=center;verticalAlign=top;childLayout=stackLayout;horizontal=1;startSize=26;horizontalStack=0;resizeParent=1;resizeLast=0;collapsible=1;marginBottom=0;rounded=0;shadow=0;strokeWidth=1;" parent="WIyWlLk6GJQsqaUBKTNV-1" vertex="1" collapsed="1">
          <mxGeometry x="20" y="36" width="160" height="26" as="geometry">
            <mxRectangle x="20" y="36" width="200" height="140" as="alternateBounds" />
          </mxGeometry>
        </mxCell>
        <mxCell id="OTvo379YdAUYMF1GGiu_-0" value="- game_deck: Deck" style="text;align=left;verticalAlign=top;spacingLeft=4;spacingRight=4;overflow=hidden;rotatable=0;points=[[0,0.5],[1,0.5]];portConstraint=eastwest;rounded=0;shadow=0;html=0;" parent="zkfFHV4jXpPFQw0GAbJ--17" vertex="1">
          <mxGeometry y="26" width="200" height="26" as="geometry" />
        </mxCell>
        <mxCell id="zkfFHV4jXpPFQw0GAbJ--23" value="" style="line;html=1;strokeWidth=1;align=left;verticalAlign=middle;spacingTop=-1;spacingLeft=3;spacingRight=3;rotatable=0;labelPosition=right;points=[];portConstraint=eastwest;" parent="zkfFHV4jXpPFQw0GAbJ--17" vertex="1">
          <mxGeometry y="52" width="200" height="10" as="geometry" />
        </mxCell>
        <mxCell id="toqturglBqnNgU9Eo2Pa-72" value="&lt;&lt;initialize&gt;&gt;" style="text;align=left;verticalAlign=top;spacingLeft=4;spacingRight=4;overflow=hidden;rotatable=0;points=[[0,0.5],[1,0.5]];portConstraint=eastwest;" parent="zkfFHV4jXpPFQw0GAbJ--17" vertex="1">
          <mxGeometry y="62" width="200" height="26" as="geometry" />
        </mxCell>
        <mxCell id="zkfFHV4jXpPFQw0GAbJ--24" value="+ give_card()" style="text;align=left;verticalAlign=top;spacingLeft=4;spacingRight=4;overflow=hidden;rotatable=0;points=[[0,0.5],[1,0.5]];portConstraint=eastwest;" parent="zkfFHV4jXpPFQw0GAbJ--17" vertex="1">
          <mxGeometry y="88" width="200" height="26" as="geometry" />
        </mxCell>
        <mxCell id="emH_409dvMcHfv_9ut4w-15" value="+ take_new_deck()" style="text;align=left;verticalAlign=top;spacingLeft=4;spacingRight=4;overflow=hidden;rotatable=0;points=[[0,0.5],[1,0.5]];portConstraint=eastwest;" vertex="1" parent="zkfFHV4jXpPFQw0GAbJ--17">
          <mxGeometry y="114" width="200" height="26" as="geometry" />
        </mxCell>
        <mxCell id="toqturglBqnNgU9Eo2Pa-12" value="Card" style="swimlane;fontStyle=1;align=center;verticalAlign=top;childLayout=stackLayout;horizontal=1;startSize=26;horizontalStack=0;resizeParent=1;resizeLast=0;collapsible=1;marginBottom=0;rounded=0;shadow=0;strokeWidth=1;" parent="WIyWlLk6GJQsqaUBKTNV-1" vertex="1" collapsed="1">
          <mxGeometry x="139.17" y="690" width="160" height="26" as="geometry">
            <mxRectangle x="139.17" y="690" width="160" height="138" as="alternateBounds" />
          </mxGeometry>
        </mxCell>
        <mxCell id="toqturglBqnNgU9Eo2Pa-13" value="- suit: String" style="text;align=left;verticalAlign=top;spacingLeft=4;spacingRight=4;overflow=hidden;rotatable=0;points=[[0,0.5],[1,0.5]];portConstraint=eastwest;" parent="toqturglBqnNgU9Eo2Pa-12" vertex="1">
          <mxGeometry y="26" width="160" height="26" as="geometry" />
        </mxCell>
        <mxCell id="toqturglBqnNgU9Eo2Pa-67" value="- rank: String" style="text;align=left;verticalAlign=top;spacingLeft=4;spacingRight=4;overflow=hidden;rotatable=0;points=[[0,0.5],[1,0.5]];portConstraint=eastwest;" parent="toqturglBqnNgU9Eo2Pa-12" vertex="1">
          <mxGeometry y="52" width="160" height="26" as="geometry" />
        </mxCell>
        <mxCell id="toqturglBqnNgU9Eo2Pa-17" value="- value: Integer" style="text;align=left;verticalAlign=top;spacingLeft=4;spacingRight=4;overflow=hidden;rotatable=0;points=[[0,0.5],[1,0.5]];portConstraint=eastwest;" parent="toqturglBqnNgU9Eo2Pa-12" vertex="1">
          <mxGeometry y="78" width="160" height="26" as="geometry" />
        </mxCell>
        <mxCell id="toqturglBqnNgU9Eo2Pa-14" value="" style="line;html=1;strokeWidth=1;align=left;verticalAlign=middle;spacingTop=-1;spacingLeft=3;spacingRight=3;rotatable=0;labelPosition=right;points=[];portConstraint=eastwest;" parent="toqturglBqnNgU9Eo2Pa-12" vertex="1">
          <mxGeometry y="104" width="160" height="8" as="geometry" />
        </mxCell>
        <mxCell id="toqturglBqnNgU9Eo2Pa-74" value="&lt;&lt;initialize&gt;&gt;" style="text;align=left;verticalAlign=top;spacingLeft=4;spacingRight=4;overflow=hidden;rotatable=0;points=[[0,0.5],[1,0.5]];portConstraint=eastwest;" parent="toqturglBqnNgU9Eo2Pa-12" vertex="1">
          <mxGeometry y="112" width="160" height="26" as="geometry" />
        </mxCell>
        <mxCell id="toqturglBqnNgU9Eo2Pa-23" style="rounded=0;orthogonalLoop=1;jettySize=auto;html=1;endArrow=block;endFill=0;" parent="WIyWlLk6GJQsqaUBKTNV-1" source="zkfFHV4jXpPFQw0GAbJ--17" target="zkfFHV4jXpPFQw0GAbJ--0" edge="1">
          <mxGeometry relative="1" as="geometry" />
        </mxCell>
        <mxCell id="toqturglBqnNgU9Eo2Pa-29" value="&lt;&lt;utility&gt;&gt; Interface" style="swimlane;fontStyle=1;align=center;verticalAlign=top;childLayout=stackLayout;horizontal=1;startSize=26;horizontalStack=0;resizeParent=1;resizeLast=0;collapsible=1;marginBottom=0;rounded=0;shadow=0;strokeWidth=1;" parent="WIyWlLk6GJQsqaUBKTNV-1" vertex="1">
          <mxGeometry x="592.5" y="590" width="305" height="490" as="geometry">
            <mxRectangle x="570" y="466.57" width="160" height="26" as="alternateBounds" />
          </mxGeometry>
        </mxCell>
        <mxCell id="toqturglBqnNgU9Eo2Pa-33" value="" style="line;html=1;strokeWidth=1;align=left;verticalAlign=middle;spacingTop=-1;spacingLeft=3;spacingRight=3;rotatable=0;labelPosition=right;points=[];portConstraint=eastwest;" parent="toqturglBqnNgU9Eo2Pa-29" vertex="1">
          <mxGeometry y="26" width="305" height="8" as="geometry" />
        </mxCell>
        <mxCell id="toqturglBqnNgU9Eo2Pa-65" value="+ display_hello_message(): String" style="text;align=left;verticalAlign=top;spacingLeft=4;spacingRight=4;overflow=hidden;rotatable=0;points=[[0,0.5],[1,0.5]];portConstraint=eastwest;" parent="toqturglBqnNgU9Eo2Pa-29" vertex="1">
          <mxGeometry y="34" width="305" height="24" as="geometry" />
        </mxCell>
        <mxCell id="emH_409dvMcHfv_9ut4w-17" value="+ display_round(): String" style="text;align=left;verticalAlign=top;spacingLeft=4;spacingRight=4;overflow=hidden;rotatable=0;points=[[0,0.5],[1,0.5]];portConstraint=eastwest;" vertex="1" parent="toqturglBqnNgU9Eo2Pa-29">
          <mxGeometry y="58" width="305" height="24" as="geometry" />
        </mxCell>
        <mxCell id="emH_409dvMcHfv_9ut4w-18" value="+ display_final_desk(): String" style="text;align=left;verticalAlign=top;spacingLeft=4;spacingRight=4;overflow=hidden;rotatable=0;points=[[0,0.5],[1,0.5]];portConstraint=eastwest;" vertex="1" parent="toqturglBqnNgU9Eo2Pa-29">
          <mxGeometry y="82" width="305" height="24" as="geometry" />
        </mxCell>
        <mxCell id="OTvo379YdAUYMF1GGiu_-14" value="+ display_tie(): String" style="text;align=left;verticalAlign=top;spacingLeft=4;spacingRight=4;overflow=hidden;rotatable=0;points=[[0,0.5],[1,0.5]];portConstraint=eastwest;" parent="toqturglBqnNgU9Eo2Pa-29" vertex="1">
          <mxGeometry y="106" width="305" height="24" as="geometry" />
        </mxCell>
        <mxCell id="OTvo379YdAUYMF1GGiu_-15" value="+ display_winner(winner: Player, bank: Integer): String" style="text;align=left;verticalAlign=top;spacingLeft=4;spacingRight=4;overflow=hidden;rotatable=0;points=[[0,0.5],[1,0.5]];portConstraint=eastwest;" parent="toqturglBqnNgU9Eo2Pa-29" vertex="1">
          <mxGeometry y="130" width="305" height="24" as="geometry" />
        </mxCell>
        <mxCell id="OTvo379YdAUYMF1GGiu_-18" value="+ display_one_more_game_offer(): String" style="text;align=left;verticalAlign=top;spacingLeft=4;spacingRight=4;overflow=hidden;rotatable=0;points=[[0,0.5],[1,0.5]];portConstraint=eastwest;" parent="toqturglBqnNgU9Eo2Pa-29" vertex="1">
          <mxGeometry y="154" width="305" height="24" as="geometry" />
        </mxCell>
        <mxCell id="OTvo379YdAUYMF1GGiu_-20" value="+ display_goodbye_message(): String" style="text;align=left;verticalAlign=top;spacingLeft=4;spacingRight=4;overflow=hidden;rotatable=0;points=[[0,0.5],[1,0.5]];portConstraint=eastwest;" parent="toqturglBqnNgU9Eo2Pa-29" vertex="1">
          <mxGeometry y="178" width="305" height="24" as="geometry" />
        </mxCell>
        <mxCell id="toqturglBqnNgU9Eo2Pa-69" value="+ display_player_actions(): String" style="text;align=left;verticalAlign=top;spacingLeft=4;spacingRight=4;overflow=hidden;rotatable=0;points=[[0,0.5],[1,0.5]];portConstraint=eastwest;" parent="toqturglBqnNgU9Eo2Pa-29" vertex="1">
          <mxGeometry y="202" width="305" height="24" as="geometry" />
        </mxCell>
        <mxCell id="toqturglBqnNgU9Eo2Pa-68" value="- clear_screen(): String" style="text;align=left;verticalAlign=top;spacingLeft=4;spacingRight=4;overflow=hidden;rotatable=0;points=[[0,0.5],[1,0.5]];portConstraint=eastwest;" parent="toqturglBqnNgU9Eo2Pa-29" vertex="1">
          <mxGeometry y="226" width="305" height="24" as="geometry" />
        </mxCell>
        <mxCell id="emH_409dvMcHfv_9ut4w-19" value="- display_dealer_name(): String" style="text;align=left;verticalAlign=top;spacingLeft=4;spacingRight=4;overflow=hidden;rotatable=0;points=[[0,0.5],[1,0.5]];portConstraint=eastwest;" vertex="1" parent="toqturglBqnNgU9Eo2Pa-29">
          <mxGeometry y="250" width="305" height="24" as="geometry" />
        </mxCell>
        <mxCell id="emH_409dvMcHfv_9ut4w-20" value="- display_dealer_deck(dealer: Dealer): String" style="text;align=left;verticalAlign=top;spacingLeft=4;spacingRight=4;overflow=hidden;rotatable=0;points=[[0,0.5],[1,0.5]];portConstraint=eastwest;" vertex="1" parent="toqturglBqnNgU9Eo2Pa-29">
          <mxGeometry y="274" width="305" height="24" as="geometry" />
        </mxCell>
        <mxCell id="emH_409dvMcHfv_9ut4w-21" value="- display_dealer_deck_hidden(dealer: Dealer): String" style="text;align=left;verticalAlign=top;spacingLeft=4;spacingRight=4;overflow=hidden;rotatable=0;points=[[0,0.5],[1,0.5]];portConstraint=eastwest;" vertex="1" parent="toqturglBqnNgU9Eo2Pa-29">
          <mxGeometry y="298" width="305" height="24" as="geometry" />
        </mxCell>
        <mxCell id="toqturglBqnNgU9Eo2Pa-40" value="- display_dealer_score(score: Integer): String" style="text;align=left;verticalAlign=top;spacingLeft=4;spacingRight=4;overflow=hidden;rotatable=0;points=[[0,0.5],[1,0.5]];portConstraint=eastwest;" parent="toqturglBqnNgU9Eo2Pa-29" vertex="1">
          <mxGeometry y="322" width="305" height="24" as="geometry" />
        </mxCell>
        <mxCell id="emH_409dvMcHfv_9ut4w-23" value="- display_bank(amount): String" style="text;align=left;verticalAlign=top;spacingLeft=4;spacingRight=4;overflow=hidden;rotatable=0;points=[[0,0.5],[1,0.5]];portConstraint=eastwest;" vertex="1" parent="toqturglBqnNgU9Eo2Pa-29">
          <mxGeometry y="346" width="305" height="24" as="geometry" />
        </mxCell>
        <mxCell id="emH_409dvMcHfv_9ut4w-22" value="- display_player_stats(player: Player): String" style="text;align=left;verticalAlign=top;spacingLeft=4;spacingRight=4;overflow=hidden;rotatable=0;points=[[0,0.5],[1,0.5]];portConstraint=eastwest;" vertex="1" parent="toqturglBqnNgU9Eo2Pa-29">
          <mxGeometry y="370" width="305" height="24" as="geometry" />
        </mxCell>
        <mxCell id="emH_409dvMcHfv_9ut4w-24" value="- display_player_score(score: Integer): String" style="text;align=left;verticalAlign=top;spacingLeft=4;spacingRight=4;overflow=hidden;rotatable=0;points=[[0,0.5],[1,0.5]];portConstraint=eastwest;" vertex="1" parent="toqturglBqnNgU9Eo2Pa-29">
          <mxGeometry y="394" width="305" height="24" as="geometry" />
        </mxCell>
        <mxCell id="toqturglBqnNgU9Eo2Pa-41" value="- display_player_name(name: String): String" style="text;align=left;verticalAlign=top;spacingLeft=4;spacingRight=4;overflow=hidden;rotatable=0;points=[[0,0.5],[1,0.5]];portConstraint=eastwest;" parent="toqturglBqnNgU9Eo2Pa-29" vertex="1">
          <mxGeometry y="418" width="305" height="24" as="geometry" />
        </mxCell>
        <mxCell id="emH_409dvMcHfv_9ut4w-25" value="- display_player_account(account: Integer): String" style="text;align=left;verticalAlign=top;spacingLeft=4;spacingRight=4;overflow=hidden;rotatable=0;points=[[0,0.5],[1,0.5]];portConstraint=eastwest;" vertex="1" parent="toqturglBqnNgU9Eo2Pa-29">
          <mxGeometry y="442" width="305" height="24" as="geometry" />
        </mxCell>
        <mxCell id="toqturglBqnNgU9Eo2Pa-10" value="- display_player_deck(deck: Deck): String" style="text;align=left;verticalAlign=top;spacingLeft=4;spacingRight=4;overflow=hidden;rotatable=0;points=[[0,0.5],[1,0.5]];portConstraint=eastwest;" parent="toqturglBqnNgU9Eo2Pa-29" vertex="1">
          <mxGeometry y="466" width="305" height="24" as="geometry" />
        </mxCell>
        <mxCell id="M5RK4euOj0mP_UqlNzLS-2" style="rounded=0;orthogonalLoop=1;jettySize=auto;html=1;" parent="WIyWlLk6GJQsqaUBKTNV-1" source="OTvo379YdAUYMF1GGiu_-6" target="toqturglBqnNgU9Eo2Pa-12" edge="1">
          <mxGeometry relative="1" as="geometry" />
        </mxCell>
        <mxCell id="M5RK4euOj0mP_UqlNzLS-3" value="is filled with" style="edgeLabel;html=1;align=center;verticalAlign=middle;resizable=0;points=[];" parent="M5RK4euOj0mP_UqlNzLS-2" vertex="1" connectable="0">
          <mxGeometry x="-0.1137" y="-2" relative="1" as="geometry">
            <mxPoint as="offset" />
          </mxGeometry>
        </mxCell>
        <mxCell id="M5RK4euOj0mP_UqlNzLS-12" style="rounded=0;orthogonalLoop=1;jettySize=auto;html=1;endArrow=none;endFill=0;startArrow=diamondThin;startFill=1;entryX=0.75;entryY=0;entryDx=0;entryDy=0;exitX=0.75;exitY=1;exitDx=0;exitDy=0;" parent="WIyWlLk6GJQsqaUBKTNV-1" source="OTvo379YdAUYMF1GGiu_-6" target="toqturglBqnNgU9Eo2Pa-12" edge="1">
          <mxGeometry relative="1" as="geometry">
            <mxPoint x="269.17" y="466.57" as="sourcePoint" />
            <mxPoint x="269.17" y="590.5699999999999" as="targetPoint" />
          </mxGeometry>
        </mxCell>
        <mxCell id="M5RK4euOj0mP_UqlNzLS-13" value="52" style="edgeLabel;html=1;align=center;verticalAlign=middle;resizable=0;points=[];" parent="M5RK4euOj0mP_UqlNzLS-12" vertex="1" connectable="0">
          <mxGeometry x="-0.1065" y="-1" relative="1" as="geometry">
            <mxPoint as="offset" />
          </mxGeometry>
        </mxCell>
        <mxCell id="M5RK4euOj0mP_UqlNzLS-14" style="rounded=0;orthogonalLoop=1;jettySize=auto;html=1;entryX=0.143;entryY=1.015;entryDx=0;entryDy=0;entryPerimeter=0;startArrow=none;startFill=0;endArrow=diamondThin;endFill=1;exitX=0;exitY=0;exitDx=0;exitDy=0;" parent="WIyWlLk6GJQsqaUBKTNV-1" source="OTvo379YdAUYMF1GGiu_-6" target="zkfFHV4jXpPFQw0GAbJ--17" edge="1">
          <mxGeometry relative="1" as="geometry" />
        </mxCell>
        <mxCell id="M5RK4euOj0mP_UqlNzLS-18" value="1" style="edgeLabel;html=1;align=center;verticalAlign=middle;resizable=0;points=[];" parent="M5RK4euOj0mP_UqlNzLS-14" vertex="1" connectable="0">
          <mxGeometry x="-0.0981" y="1" relative="1" as="geometry">
            <mxPoint as="offset" />
          </mxGeometry>
        </mxCell>
        <mxCell id="M5RK4euOj0mP_UqlNzLS-19" style="rounded=0;orthogonalLoop=1;jettySize=auto;html=1;exitX=1;exitY=0;exitDx=0;exitDy=0;entryX=0.5;entryY=1;entryDx=0;entryDy=0;endArrow=diamondThin;endFill=1;" parent="WIyWlLk6GJQsqaUBKTNV-1" source="OTvo379YdAUYMF1GGiu_-6" target="zkfFHV4jXpPFQw0GAbJ--0" edge="1">
          <mxGeometry relative="1" as="geometry" />
        </mxCell>
        <mxCell id="M5RK4euOj0mP_UqlNzLS-20" value="1" style="edgeLabel;html=1;align=center;verticalAlign=middle;resizable=0;points=[];" parent="M5RK4euOj0mP_UqlNzLS-19" vertex="1" connectable="0">
          <mxGeometry x="0.0108" relative="1" as="geometry">
            <mxPoint y="1" as="offset" />
          </mxGeometry>
        </mxCell>
        <mxCell id="OTvo379YdAUYMF1GGiu_-6" value="Deck" style="swimlane;fontStyle=1;align=center;verticalAlign=top;childLayout=stackLayout;horizontal=1;startSize=26;horizontalStack=0;resizeParent=1;resizeLast=0;collapsible=1;marginBottom=0;rounded=0;shadow=0;strokeWidth=1;" parent="WIyWlLk6GJQsqaUBKTNV-1" vertex="1" collapsed="1">
          <mxGeometry x="139.17" y="440.57" width="160" height="26" as="geometry">
            <mxRectangle x="139.17" y="440.57" width="160" height="164" as="alternateBounds" />
          </mxGeometry>
        </mxCell>
        <mxCell id="OTvo379YdAUYMF1GGiu_-7" value="- cards[52]: Card" style="text;align=left;verticalAlign=top;spacingLeft=4;spacingRight=4;overflow=hidden;rotatable=0;points=[[0,0.5],[1,0.5]];portConstraint=eastwest;" parent="OTvo379YdAUYMF1GGiu_-6" vertex="1">
          <mxGeometry y="26" width="160" height="26" as="geometry" />
        </mxCell>
        <mxCell id="OTvo379YdAUYMF1GGiu_-10" value="" style="line;html=1;strokeWidth=1;align=left;verticalAlign=middle;spacingTop=-1;spacingLeft=3;spacingRight=3;rotatable=0;labelPosition=right;points=[];portConstraint=eastwest;" parent="OTvo379YdAUYMF1GGiu_-6" vertex="1">
          <mxGeometry y="52" width="160" height="8" as="geometry" />
        </mxCell>
        <mxCell id="OTvo379YdAUYMF1GGiu_-11" value="&lt;&lt;initialize&gt;&gt;" style="text;align=left;verticalAlign=top;spacingLeft=4;spacingRight=4;overflow=hidden;rotatable=0;points=[[0,0.5],[1,0.5]];portConstraint=eastwest;" parent="OTvo379YdAUYMF1GGiu_-6" vertex="1">
          <mxGeometry y="60" width="160" height="26" as="geometry" />
        </mxCell>
        <mxCell id="emH_409dvMcHfv_9ut4w-1" value="+ add_card!(card: Card)" style="text;align=left;verticalAlign=top;spacingLeft=4;spacingRight=4;overflow=hidden;rotatable=0;points=[[0,0.5],[1,0.5]];portConstraint=eastwest;" vertex="1" parent="OTvo379YdAUYMF1GGiu_-6">
          <mxGeometry y="86" width="160" height="26" as="geometry" />
        </mxCell>
        <mxCell id="emH_409dvMcHfv_9ut4w-2" value="+ take_out_card!()" style="text;align=left;verticalAlign=top;spacingLeft=4;spacingRight=4;overflow=hidden;rotatable=0;points=[[0,0.5],[1,0.5]];portConstraint=eastwest;" vertex="1" parent="OTvo379YdAUYMF1GGiu_-6">
          <mxGeometry y="112" width="160" height="26" as="geometry" />
        </mxCell>
        <mxCell id="emH_409dvMcHfv_9ut4w-3" value="+ shuffle!()" style="text;align=left;verticalAlign=top;spacingLeft=4;spacingRight=4;overflow=hidden;rotatable=0;points=[[0,0.5],[1,0.5]];portConstraint=eastwest;" vertex="1" parent="OTvo379YdAUYMF1GGiu_-6">
          <mxGeometry y="138" width="160" height="26" as="geometry" />
        </mxCell>
        <mxCell id="M5RK4euOj0mP_UqlNzLS-8" style="rounded=0;orthogonalLoop=1;jettySize=auto;html=1;" parent="WIyWlLk6GJQsqaUBKTNV-1" source="zkfFHV4jXpPFQw0GAbJ--17" target="OTvo379YdAUYMF1GGiu_-6" edge="1">
          <mxGeometry relative="1" as="geometry">
            <mxPoint x="377" y="-114" as="sourcePoint" />
            <mxPoint x="83" y="180" as="targetPoint" />
          </mxGeometry>
        </mxCell>
        <mxCell id="M5RK4euOj0mP_UqlNzLS-9" value="uses to store cards" style="edgeLabel;html=1;align=center;verticalAlign=middle;resizable=0;points=[];" parent="M5RK4euOj0mP_UqlNzLS-8" vertex="1" connectable="0">
          <mxGeometry x="-0.0605" y="2" relative="1" as="geometry">
            <mxPoint x="-1" as="offset" />
          </mxGeometry>
        </mxCell>
      </root>
    </mxGraphModel>
  </diagram>
</mxfile>
